# xmcd
#
# Track frame offsets:
#	150
#	21050
#	42349
#	68573
#	86362
#	97932
#	121116
#	134430
#	151940
#	169060
#	188323
#	205515
#	220657
#	235740
#	267183
#	278290
#	296257
#	306491
#
# Disc length: 4261
#
# Revision: 2
# Processed by: cddbd v1.5.1PL0 Copyright (c) Steve Scherf et al.
# Submitted via: audiograbber 1.83.01
# Normalized: r1:DSETVAR1
#
DISCID=de10a312
DTITLE=Various Artist - The Soul Of Cape Verde
DYEAR=2004
DGENRE=Worldmusic
TTITLE0=Cesaria Evora - Papa Joachin Paris
TTITLE1=Humbertona and Piuna - Miss Perfumado
TTITLE2=Maria Alice - Falso Testemunho
TTITLE3=Djosinha - Partida
TTITLE4=Luis Mokais - Boas Festas
TTITLE5=Tito Paris - Otilia/Otilio
TTITLE6=Ana Firmino and Travadinha - O Bernard'
TTITLE7=Teofilo Chantre - Pais Di Mel
TTITLE8=Bau - Situacoes Triangulares
TTITLE9=Chico Serra - Fidjo Maguado
TTITLE10=Bana - Sina De Cabo Verde
TTITLE11=Titina - Galo Bedjo
TTITLE12=Mindel Band - Cercode
TTITLE13=Simentera - Dia C'Tchuva Bem
TTITLE14=Voz De Cabo Verde - Carinha Di Bo Mae
TTITLE15=Bana - Serpentina
TTITLE16=Amandio Cabral - Cutch Cutch
TTITLE17=Celina Pereira - Saude
EXTD=
EXTT0=
EXTT1=
EXTT2=
EXTT3=
EXTT4=
EXTT5=
EXTT6=
EXTT7=
EXTT8=
EXTT9=
EXTT10=
EXTT11=
EXTT12=
EXTT13=
EXTT14=
EXTT15=
EXTT16=
EXTT17=
PLAYORDER=
